<?xml version="1.0" encoding="UTF-8"?>
<svg xmlns="http://www.w3.org/2000/svg" version="1.1" viewBox="0 0 148 125">
  <defs>
    <style>
      .cls-1 {
        fill: none;
      }

      .cls-2, .cls-3 {
        fill: #6308ba;
      }

      .cls-3 {
        opacity: .2;
      }
    </style>
  </defs>
  <!-- Generator: Adobe Illustrator 28.7.0, SVG Export Plug-In . SVG Version: 1.2.0 Build 136)  -->
  <g>
    <g id="Camada_1">
      <ellipse class="cls-3" cx="74" cy="110.2" rx="74" ry="14.2"/>
      <rect class="cls-1" width="148" height="125"/>
      <g id="Group_43">
        <path class="cls-2" d="M26.9,0v110.2h95.1V0H26.9ZM70.1,94h-31v-34h31v34ZM70.1,52h-31V18h31v34ZM109.1,94h-31.1v-34h31.1v34ZM109.1,52h-31.1V18h31.1v34Z"/>
        <path id="Rectangle_92" class="cls-2" d="M42.1,34.5h23v3.2h-23v-3.2Z"/>
        <path id="Rectangle_93" class="cls-2" d="M42.1,76.5h23v3.2h-23v-3.2Z"/>
        <path id="Rectangle_94" class="cls-2" d="M82.2,34.5h23v3.2h-23v-3.2Z"/>
        <path id="Rectangle_95" class="cls-2" d="M82.2,76.5h23v3.2h-23v-3.2Z"/>
        <path id="Rectangle_96" class="cls-2" d="M42.1,39.8h14v3.2h-14v-3.2Z"/>
        <path id="Rectangle_97" class="cls-2" d="M42.1,44.8h18.8v3.2h-18.8v-3.2Z"/>
        <path id="Rectangle_98" class="cls-2" d="M42.1,81.8h14v3.2h-14v-3.2Z"/>
        <path id="Rectangle_99" class="cls-2" d="M42.1,86.8h18.8v3.2h-18.8v-3.2Z"/>
        <path id="Rectangle_100" class="cls-2" d="M82.2,39.8h14v3.2h-14v-3.2Z"/>
        <path id="Rectangle_101" class="cls-2" d="M82.2,44.8h18.8v3.2h-18.8v-3.2Z"/>
        <path id="Rectangle_102" class="cls-2" d="M82.2,81.8h14v3.2h-14v-3.2Z"/>
        <path id="Rectangle_103" class="cls-2" d="M82.2,86.8h18.8v3.2h-18.8v-3.2Z"/>
        <circle id="Ellipse_42" class="cls-2" cx="47.7" cy="27.2" r="5.7"/>
        <circle id="Ellipse_43" class="cls-2" cx="47.7" cy="69.2" r="5.7"/>
        <circle id="Ellipse_44" class="cls-2" cx="87.7" cy="27.2" r="5.7"/>
        <circle id="Ellipse_45" class="cls-2" cx="87.7" cy="69.2" r="5.7"/>
      </g>
    </g>
  </g>
</svg>